<?xml version="1.0" encoding="UTF-8"?>
<svg xmlns="http://www.w3.org/2000/svg" viewBox="0 0 500 500">
  <defs>
    <style>
      .cls-1 {
        fill: #fff;
      }

      .cls-2, .cls-3 {
        fill: #8cc63f;
      }

      .cls-3 {
        opacity: .7;
      }
    </style>
  </defs>
  <g id="_层_2" data-name="图层 2">
    <rect class="cls-1" y="0" width="500" height="500" rx="100" ry="100"/>
  </g>
  <g id="_层_1" data-name="图层 1">
    <path class="cls-2" d="M130.04347,457.17392h76.95653c.05249-41.90298-4.17392-242.34784-168.52174-258.52174,63.11731,68.93199,89.5646,139.40791,91.56521,258.52174Z"/>
    <path class="cls-2" d="M222.13043,457.17392h78.78262c0-27.91305,16.69564-392.6087-186.78262-401.47827,97.56522,110.6087,108,288.78261,108,401.47827Z"/>
    <path class="cls-3" d="M296.34783,222.78261c17.21738,35.47826,22.95652,94.30435,21.91304,109.56522,3.26087-51,45.52174-174.3913,80.73913-208.82609-33.91304,5.21739-84.39131,31.43479-102.65217,99.26087Z"/>
    <path class="cls-2" d="M322.56522,457.17392h79.82608c0-25.56522-7.98636-152.50955,62.6087-253.56523-157.61304,23.14618-142.43478,238.69566-142.43478,253.56523Z"/>
  </g>
</svg>