<?xml version="1.0" encoding="UTF-8"?>
<svg xmlns="http://www.w3.org/2000/svg" viewBox="0 0 3000 500">
  <defs>
    <style>
      .cls-1, .cls-2 {
        fill: #8cc63f;
      }

      .cls-2 {
        opacity: .7;
      }

      .cls-3 {
        fill: #f2f2f2;
      }
    </style>
  </defs>
  <g id="_层_2" data-name="图层 2">
    <rect class="cls-3" x="298.80268" y="0" width="500" height="500" rx="100" ry="100"/>
  </g>
  <g id="_层_1" data-name="图层 1">
    <path class="cls-1" d="M428.84615,457.17392h76.95653c.05249-41.90298-4.17392-242.34784-168.52174-258.52174,63.11731,68.93199,89.5646,139.40791,91.56521,258.52174Z"/>
    <path class="cls-1" d="M520.93311,457.17392h78.78262c0-27.91305,16.69564-392.6087-186.78262-401.47827,97.56522,110.6087,108,288.78261,108,401.47827Z"/>
    <path class="cls-2" d="M595.1505,222.78261c17.21738,35.47826,22.95652,94.30435,21.91304,109.56522,3.26087-51,45.52174-174.3913,80.73913-208.82609-33.91304,5.21739-84.39131,31.43479-102.65217,99.26087Z"/>
    <path class="cls-1" d="M621.36789,457.17392h79.82608c0-25.56522-7.98636-152.50955,62.6087-253.56523-157.61304,23.14618-142.43478,238.69566-142.43478,253.56523Z"/>
  </g>
  <g id="_层_3" data-name="图层 3">
    <g>
      <path d="M928.706,431.90039c-17.19238-.61426-25.48145-7.88086-24.86719-21.79688s3.22363-20.72266,7.82812-20.41504c4.60547,.30664,8.49023,.30664,11.66602,0,3.1709-.30762,5.78027-.61426,7.8291-.92188,2.04297-.30664,3.57812-1.22754,4.60449-2.7627,1.02148-1.53516,2.65723-3.68359,4.91211-6.44727,2.25-2.7627,3.68359-18.87988,4.29785-48.35254,0-1.02148-.30664-1.12207-.9209-.30664-9.82422,11.87207-17.65234,20.16113-23.48535,24.86719-5.83301,4.70996-13.04785,1.12695-21.64355-10.74512-8.39453-11.86816-10.54395-19.08203-6.44727-21.64355,4.0918-2.55664,11.66602-9.51758,22.71777-20.87598,11.05273-11.35938,18.92871-20.72266,23.63965-28.09082,2.65723-4.49902,3.57812-9.31055,2.7627-14.42871-.61426-4.91211-2.04785-10.8457-4.29785-17.80566-.20605-1.02197-.71973-1.22803-1.53516-.61426-7.57422,6.34619-14.1748,11.3584-19.80176,15.04297-5.63086,3.68359-12.23145-.4082-19.80078-12.27979-7.36816-11.66602-8.24121-19.28857-2.61035-22.87158,5.62695-3.57861,12.94238-9.67041,21.95117-18.2666,1.22754-1.22803,1.32812-2.55664,.30664-3.99121-6.3457-9.20996-11.66602-15.604-15.96387-19.1875-4.29785-3.57812-2.35547-10.17871,5.83301-19.80127,7.98242-9.61768,14.88965-11.97314,20.72266-7.06104s11.71387,10.74512,17.65234,17.49902c.61426,.82031,1.22754,.82031,1.8418,0,9.82422-13.30176,20.46387-15.65723,31.92773-7.06104,11.25391,8.59619,11.66602,19.75342,1.22852,33.46289l-6.44727,8.28906c-2.04785,2.6626-2.35547,5.42529-.9209,8.28906,5.72754,12.07861,9.9248,27.32324,12.58691,45.74268,2.25,14.32812,3.37695,31.92773,3.37695,52.80371,0,52.19043-6.03906,86.47363-18.1123,102.8457-4.91211,6.54785-11.56543,10.94629-19.95508,13.20117-10.03027,2.65723-16.99121,3.88477-20.87598,3.68359Zm61.09277-229.94287c0-13.30176,8.5957-19.95508,25.78809-19.95508h3.68359c1.02148,0,1.53516-.5083,1.53516-1.53467v-10.43799c0-17.19238,7.16211-25.78809,21.49023-25.78809,14.12207,0,21.18262,8.5957,21.18262,25.78809v10.43799c0,1.02637,.50879,1.53467,1.53516,1.53467h31.62109c1.02148,0,1.53516-.5083,1.53516-1.53467v-10.43799c0-17.19238,7.2627-25.78809,21.79688-25.78809,14.32324,0,21.49023,8.5957,21.49023,25.78809v10.43799c0,1.02637,.50781,1.53467,1.53418,1.53467h6.44727c17.19238,0,25.78809,6.65332,25.78809,19.95508,0,13.30664-8.5957,19.95508-25.78809,19.95508h-6.44727c-1.02637,0-1.53418,.51318-1.53418,1.53516v4.29785c0,17.19189-7.16699,25.7876-21.49023,25.7876-14.53418,0-21.79688-8.5957-21.79688-25.7876v-4.29785c0-1.02197-.51367-1.53516-1.53516-1.53516h-31.62109c-1.02637,0-1.53516,.51318-1.53516,1.53516v4.29785c0,17.19189-7.06055,25.7876-21.18262,25.7876-14.32812,0-21.49023-8.5957-21.49023-25.7876v-4.29785c0-1.02197-.51367-1.53516-1.53516-1.53516h-3.68359c-17.19238,0-25.78809-6.64844-25.78809-19.95508Zm28.55078,231.47803c-13.50781,0-20.26172-8.5957-20.26172-25.78809v-121.26562c0-17.19141,8.5957-25.78711,25.78809-25.78711h116.9668c17.19238,0,25.78809,8.5957,25.78809,25.78711v119.73047c0,17.19238-7.06152,25.78809-21.18359,25.78809s-21.18262-3.58301-21.18262-10.74512c0-1.02637-.51367-1.53516-1.53516-1.53516h-82.88965c-1.02637,0-1.53516,.50879-1.53516,1.53516,0,8.18359-6.65332,12.28027-19.95508,12.28027Zm19.95508-113.89746c0,1.02637,.50879,1.53516,1.53516,1.53516h19.34082c1.02148,0,1.53516-.50879,1.53516-1.53516v-18.72656c0-1.02148-.51367-1.53516-1.53516-1.53516h-19.34082c-1.02637,0-1.53516,.51367-1.53516,1.53516v18.72656Zm0,59.86523c0,1.02637,.50879,1.53516,1.53516,1.53516h19.34082c1.02148,0,1.53516-.50879,1.53516-1.53516v-19.34082c0-1.02148-.51367-1.53516-1.53516-1.53516h-19.34082c-1.02637,0-1.53516,.51367-1.53516,1.53516v19.34082Zm62.01367-59.86523c0,1.02637,.50879,1.53516,1.53516,1.53516h20.87598c1.02148,0,1.53516-.50879,1.53516-1.53516v-18.72656c0-1.02148-.51367-1.53516-1.53516-1.53516h-20.87598c-1.02637,0-1.53516,.51367-1.53516,1.53516v18.72656Zm0,59.86523c0,1.02637,.50879,1.53516,1.53516,1.53516h20.87598c1.02148,0,1.53516-.50879,1.53516-1.53516v-19.34082c0-1.02148-.51367-1.53516-1.53516-1.53516h-20.87598c-1.02637,0-1.53516,.51367-1.53516,1.53516v19.34082Z"/>
      <path d="M1232.02143,436.50586c-17.39844-.61426-25.58594-8.08789-24.55957-22.41113,.81543-14.32324,3.22363-21.28418,7.21387-20.87598,3.99121,.41211,6.60059,.61426,7.8291,.61426,8.18359-.81543,13.30176-1.38184,15.34961-1.68848,2.04395-.30762,3.68457-1.27637,4.91211-2.91699,1.22852-1.63574,2.96484-4.0918,5.21875-7.36816,2.25-3.27148,3.88574-19.23535,4.91211-47.8916,0-1.02246-.30664-1.12305-.9209-.30762-10.23633,12.69336-18.11328,21.33691-23.63867,25.94238-5.52637,4.60449-12.69238,.97363-21.49023-10.89941-9.00879-12.07324-11.35938-19.49414-7.06055-22.25684,4.29785-2.76367,11.91992-10.02637,22.87109-21.79785,10.94629-11.7666,18.88086-21.74414,23.79199-29.93164,2.6582-4.29883,3.47852-8.90332,2.45605-13.81543l-2.14844-11.66602c-.20605-1.02148-.71973-1.22803-1.53516-.61377-6.95996,6.55225-13.56055,12.02588-19.80176,16.42432-6.24512,4.40332-13.25391,.66699-21.0293-11.20605-7.78027-11.8667-8.95605-19.44092-3.53027-22.71729,5.41992-3.27148,13.76172-10.8457,25.02051-22.71777,1.42969-1.63574,1.53516-3.37744,.30664-5.21924-7.57422-11.45996-14.42871-19.59521-20.56836-24.40625-6.14062-4.80664-5.21973-12.32812,2.7627-22.56494,7.98145-10.23145,18.72656-10.13086,32.23535,.30713,.81543,.61426,5.41992,5.83301,13.81445,15.65723,.61426,.82031,1.22852,.82031,1.8418,0,5.72754-8.18359,9.71875-14.32373,11.97363-18.41992,2.24902-4.0918,9.9248-2.35059,23.02441,5.21875,13.0957,7.57422,17.39355,15.04297,12.89453,22.41113-4.50488,7.36768-11.56543,16.78418-21.18359,28.24365-2.04785,2.45605-2.45605,5.21924-1.22754,8.28906,2.25,5.11865,4.0918,10.49072,5.52539,16.11768,1.42969,5.63135,3.27148,13.86768,5.52637,24.71289,2.25,10.85059,3.37695,28.96387,3.37695,54.33984,0,53.41797-3.68359,85.14453-11.05176,95.16992-5.11816,6.75391-8.90332,11.86719-11.35938,15.34961-2.45605,3.47754-8.18848,6.44727-17.19141,8.90332-10.85059,2.86328-19.03418,4.19238-24.56055,3.99121Zm72.14551-177.75391c-13.30664-10.84521-14.32812-22.91895-3.07031-36.22559,1.22754-1.4292,6.03418-10.53857,14.42871-27.32275,7.98242-16.16553,12.1748-25.06836,12.58691-26.70898,4.70605-16.77979,14.0166-22.91943,27.9375-18.41992,14.12207,4.29785,18.31445,14.63525,12.58691,31.00684l-1.8418,5.21924c-.41309,1.02637-.10547,1.53467,.9209,1.53467h83.19727c17.39258,0,25.88867,8.70166,25.48047,26.09521-1.43457,69.18066-3.17578,116.86621-5.21875,143.06152-2.25488,30.49902-3.68457,46.15625-4.29785,46.97168-4.91211,6.75391-8.39453,11.71387-10.43848,14.88965-2.04785,3.16992-4.25,5.47266-6.60059,6.90723-2.35449,1.42969-4.55664,2.81055-6.60059,4.14453-2.04785,1.32812-4.70996,2.30273-7.98145,2.91602-3.27637,.61426-6.70605,1.3291-10.28418,2.14941-3.58398,.81543-9.97754,1.12207-19.1875,.9209-17.19238-.20605-25.58691-7.78027-25.1748-22.71777,.4082-14.73633,9.10449-21.79688,26.0957-21.18359h5.21875c2.45605,0,4.39844-.96875,5.83301-2.91602,1.42969-1.94336,3.07031-4.03906,4.91211-6.29395,1.8418-2.24902,3.68359-15.34961,5.52539-39.2959,1.84277-23.12598,3.27148-61.09277,4.29883-113.89697,0-1.02148-.51367-1.53467-1.53516-1.53467h-77.97852c-3.68359,0-6.44727,1.53467-8.28906,4.60498l-10.13086,16.88477c-.61426,.82031-.41211,1.22803,.61426,1.22803h53.41797c17.19238,0,25.78809,8.5957,25.78809,25.78809v61.09277c0,17.19238-8.5957,25.78809-25.78809,25.78809h-32.84863c-1.02734,0-1.53516,.51367-1.53516,1.53516,0,12.28027-6.65332,18.41992-19.95508,18.41992-13.30664,0-19.95508-8.5957-19.95508-25.78809v-84.11816c0-4.29785-1.64062-7.77539-4.91211-10.4375l-5.21875-4.29883Zm50.04102,65.69824c0,1.02637,.50781,1.53516,1.53516,1.53516h17.49805c1.02246,0,1.53516-.50879,1.53516-1.53516v-34.69043c0-1.02246-.5127-1.53516-1.53516-1.53516h-17.49805c-1.02734,0-1.53516,.5127-1.53516,1.53516v34.69043Z"/>
      <path d="M1615.77143,429.1377c-16.37598,5.31934-26.6084,1.12207-30.7002-12.58691-4.0957-13.91602,1.22852-24.35352,15.96484-31.31445l34.99805-16.27051c1.02148-.4082,1.22754-1.02246,.61328-1.8418-12.89355-14.12207-23.94531-29.67383-33.15625-46.66504-.41211-.81543-.81934-.71484-1.22754,.30762-15.14844,42.16406-31.41992,71.43066-48.81348,87.80176-12.69238,11.86719-24.45898,11.56055-35.30469-.9209-11.05176-12.28027-9.82422-23.94629,3.68457-34.99805,26.80957-22.30566,45.63672-69.27637,56.4873-140.91309,.20215-1.02148-.20605-1.53467-1.22754-1.53467h-39.91016c-17.19238,0-25.78809-7.2627-25.78809-21.79688,0-14.32373,8.5957-21.49023,25.78809-21.49023h44.20801c1.22754,0,1.8418-.61377,1.8418-1.8418l.9209-15.96436c.61426-17.19189,8.69727-25.37549,24.25293-24.56006,15.55176,.61426,22.81934,9.51709,21.79688,26.70898l-.9209,14.12207c0,1.02686,.50879,1.53516,1.53516,1.53516h124.33496c17.19238,0,25.78809,7.1665,25.78809,21.49023,0,14.53418-8.5957,21.79688-25.78809,21.79688h-127.71191c-1.8418,0-2.96875,.9209-3.37695,2.7627l-3.68359,22.41064c-.20605,1.02637,.20117,1.53516,1.22754,1.53516l90.25781-1.53516c10.8457-.20117,21.28418,1.84277,31.31445,6.14062,10.4375,4.29785,13.50781,14.42871,9.20996,30.39258-6.13965,23.53809-20.56934,47.99805-43.28711,73.37305-.61426,.82031-.5127,1.43457,.30664,1.84277,21.89844,11.87207,36.5332,18.41992,43.90137,19.64746,17.19238,3.07031,24.25293,12.07812,21.18262,27.01562-3.06934,15.14453-13.09961,20.77051-30.08594,16.88574-23.74414-5.52637-46.5625-15.55664-68.46094-30.08594-2.25391-1.63574-4.50391-1.63574-6.75391,0-19.64746,13.91504-37.4541,23.43262-53.41797,28.55078Zm53.72559-89.64453c.81543,.61426,1.53418,.51367,2.14844-.30664,10.8457-11.66602,19.64844-24.35352,26.40234-38.06836,.40723-.81543,.10059-1.22754-.9209-1.22754h-57.40918c-1.02637,0-1.22852,.41211-.61426,1.22754,8.38965,14.53516,18.52051,27.32324,30.39355,38.375Z"/>
      <path d="M1850.62689,423.91895c-14.94238,8.79688-25.99414,6.85449-33.15625-5.83301-6.95996-12.89453-2.66211-23.22656,12.89355-31.00781,3.07031-1.63574,11.35938-12.58691,24.86719-32.84863,1.02148-1.42969,.9209-2.7627-.30664-3.99121-13.10059-12.07324-22.20996-20.26172-27.32324-24.55957-11.87207-9.41211-15.55566-21.38477-11.05176-35.91895,1.42969-4.5,4.70605-18.92871,9.82422-43.28711,.20117-1.02197-.20703-1.53516-1.22852-1.53516-10.85059,0-16.27051-6.85449-16.27051-20.56885,0-13.5083,7.98145-20.26221,23.94531-20.26221,1.02246,0,1.63574-.9209,1.84277-2.7627,3.06934-17.6001,4.70508-27.73096,4.91113-30.39307,1.42969-17.39355,9.51758-25.17432,24.25391-23.33203,14.73535,1.64062,20.77051,11.05176,18.1123,28.24365l-3.99121,26.70947c-.20605,1.02637,.20215,1.53467,1.22852,1.53467l18.72656-.61377c10.02539-.40771,19.64844,.4126,28.8584,2.45605,9.00391,2.04834,12.89355,11.2583,11.66602,27.62988-3.07031,37.45361-11.56543,72.35107-25.48145,104.68701-1.02637,2.25488-.61328,4.19727,1.22852,5.83301,12.89355,11.46484,21.84473,20.62207,26.8623,27.47656,5.0127,6.85938,1.27637,14.6875-11.20508,23.48535-12.48633,9.00879-19.49512,12.38086-21.03027,10.13086-1.53418-2.25-7.93359-9.31055-19.1875-21.18262-.61328-.81543-1.22754-.81543-1.8418,0-14.94238,20.67383-27.32324,33.97168-37.14648,39.91016Zm25.48047-112.97656c.81543,.61426,1.42969,.41211,1.8418-.61426,7.16211-18.41992,12.48145-39.70312,15.96484-63.85547,.20117-1.02197-.20703-1.53516-1.22852-1.53516h-19.95508c-2.04785,0-3.27637,1.02637-3.68359,3.06982l-10.13086,43.59424c-.82031,3.06934,0,5.63086,2.45605,7.6748l14.73535,11.66602Zm107.4502,125.25586c-17.19238,0-25.6875-7.06055-25.48047-21.18262,0-14.32324,8.5957-21.28418,25.78711-20.87598h3.99121c2.65723,0,4.5-.4082,5.52637-1.22852,1.02148-.81543,1.53516-2.34961,1.53516-4.60449v-75.8291c0-1.02148-.51367-1.53516-1.53516-1.53516h-34.38379c-17.19238,0-25.78809-7.06152-25.78809-21.18262,0-14.12207,8.5957-21.18359,25.78809-21.18359h34.38379c1.02148,0,1.53516-.50879,1.53516-1.53516v-4.29785c0-13.09521,4.80664-24.14697,14.42871-33.15576,1.8418-1.63574,7.87598-10.74463,18.11328-27.32275,.61328-.81543,.40723-1.22803-.61426-1.22803h-56.48828c-17.19141,0-25.78809-6.75391-25.78809-20.26221,0-13.30176,8.59668-20.05566,25.78809-20.26172l78.89941-1.53516c12.07324-.20166,23.02441,3.27637,32.84863,10.43799,10.02539,7.1665,10.43848,17.80615,1.22852,31.92822-9.62305,14.53418-21.90332,28.96338-36.83984,43.28662-3.4834,3.27637-5.21973,7.26709-5.21973,11.97314v10.4375c0,1.02637,.50879,1.53516,1.53516,1.53516h30.7002c17.19141,0,25.78809,7.06152,25.78809,21.18359,0,14.12109-8.59668,21.18262-25.78809,21.18262h-30.7002c-1.02637,0-1.53516,.51367-1.53516,1.53516v76.75c0,11.25781-1.38086,19.84961-4.14453,25.78809-2.7627,5.93359-5.88574,9.71875-9.36328,11.35938-3.48242,1.63574-9.20996,4.19238-17.19238,7.6748-3.06934,1.42969-12.07812,2.14844-27.01562,2.14844Z"/>
      <path d="M2171.44135,435.8916c-13.91992,0-20.87598-8.5957-20.87598-25.78809v-65.69824c0-1.02148-.20605-1.02148-.61328,0-6.34668,17.19238-9.92969,26.35449-10.74512,27.47656-.82031,1.12793-7.06152-2.50391-18.72754-10.89844-11.66602-8.5957-12.07812-19.74902-1.22754-33.46289,2.45605-3.07031,7.36816-13.70996,14.73535-31.92773,6.75391-16.57812,11.45996-30.28809,14.12207-41.13867,1.63574-7.36768,2.45605-11.3584,2.45605-11.97266,0-.61377-.5127-.9209-1.53516-.9209h-6.44629c-17.19238,0-25.78809-6.85449-25.78809-20.56885,0-13.70947,8.5957-20.56934,25.78809-20.56934h6.44629c1.02246,0,1.53516-.5083,1.53516-1.53467v-28.85791c0-17.19238,6.95605-25.78809,20.87598-25.78809,13.91602,0,20.87598,8.5957,20.87598,25.78809v28.85791c0,1.02637,.50879,1.53467,1.53516,1.53467,14.12207,0,21.18359,6.85986,21.18359,20.56934,0,13.71436-7.06152,20.56885-21.18359,20.56885-1.02637,0-1.53516,.51318-1.53516,1.53516,0,5.52588,1.63574,10.64355,4.91211,15.34961l19.95508,29.16504c10.02539,14.53418,9.51758,24.86719-1.53516,31.00684-11.25781,5.93848-18.83203,3.79004-22.71777-6.44727-.41211-1.02148-.61426-1.02148-.61426,0v97.93359c0,17.19238-6.95996,25.78809-20.87598,25.78809Zm59.25098-3.99121c-17.19141,0-25.78809-6.13965-25.78809-18.41992,0-12.48145,7.98242-18.72656,23.94629-18.72656,1.02148,0,1.53516-.50879,1.53516-1.53516V250.77051c0-17.19189,8.5957-25.78809,25.78809-25.78809h17.49902c1.8418,0,2.86328-.9209,3.07031-2.7627l1.8418-10.74512c.20117-1.02197-.20703-1.53516-1.22852-1.53516h-31.62109c-17.19141,0-25.78809-6.13965-25.78809-18.41992,0-12.07373,8.59668-18.11279,25.78809-18.11279h35.30566c1.42871,0,2.14844-.71484,2.14844-2.14941l.30762-2.14893c1.22754-17.39355,9.20996-25.17383,23.94531-23.33203,14.73633,1.84229,20.77051,10.54395,18.11328,26.09521-.20605,1.02637,.20117,1.53516,1.22852,1.53516h44.51465c17.19141,0,25.78809,6.03906,25.78809,18.11279,0,12.28027-8.59668,18.41992-25.78809,18.41992h-50.04102c-2.25488,0-3.68457,1.02686-4.29785,3.07031l-2.45605,10.43799c-.20605,1.02637,.20117,1.53467,1.22754,1.53467h41.75195c17.19238,0,25.78809,8.59619,25.78809,25.78809v142.44824c0,1.02637,.50879,1.53516,1.53516,1.53516,13.70996,0,20.56934,6.24512,20.56934,18.72656,0,12.28027-8.59668,18.41992-25.78809,18.41992h-148.89551Zm40.21777-164.85938c0,1.02637,.50781,1.53516,1.53418,1.53516h66.61914c1.02148,0,1.53516-.50879,1.53516-1.53516v-8.5957c0-1.02148-.51367-1.53516-1.53516-1.53516h-66.61914c-1.02637,0-1.53418,.51367-1.53418,1.53516v8.5957Zm0,42.05957c0,1.02637,.50781,1.53516,1.53418,1.53516h66.61914c1.02148,0,1.53516-.50879,1.53516-1.53516v-8.90332c0-1.02148-.51367-1.53516-1.53516-1.53516h-66.61914c-1.02637,0-1.53418,.51367-1.53418,1.53516v8.90332Zm0,41.44531c0,1.02637,.50781,1.53418,1.53418,1.53418h66.61914c1.02148,0,1.53516-.50781,1.53516-1.53418v-9.20996c0-1.02246-.51367-1.53516-1.53516-1.53516h-66.61914c-1.02637,0-1.53418,.5127-1.53418,1.53516v9.20996Zm0,42.67285c0,1.02637,.50781,1.53516,1.53418,1.53516h66.61914c1.02148,0,1.53516-.50879,1.53516-1.53516v-9.82422c0-1.02148-.51367-1.53516-1.53516-1.53516h-66.61914c-1.02637,0-1.53418,.51367-1.53418,1.53516v9.82422Z"/>
      <path d="M2495.01947,435.8916c-13.71387,0-20.56934-8.5957-20.56934-25.78809v-68.46094c0-1.02148-.5127-1.42969-1.53418-1.22754l-15.96387,4.91113c-16.57812,4.71094-26.70898,0-30.39355-14.12207-3.89062-14.12207,2.65723-23.22656,19.64844-27.32324l25.17383-6.13965c2.04297-.40723,3.06934-1.73633,3.06934-3.99121v-48.19824c0-1.02197-.5127-1.53516-1.53418-1.53516h-11.35938c-2.04785,0-3.27637,1.02637-3.68359,3.06982-2.86914,12.27979-5.01758,20.21436-6.44727,23.79248-1.43457,3.58301-7.78027,3.12305-19.03418-1.38184-11.25781-4.29785-13.81445-14.42871-7.6748-30.39258,2.65723-7.36816,4.80664-23.84033,6.44727-49.42676,1.02148-17.39355,7.6748-25.58203,19.95508-24.56006,12.2793,1.22803,17.49902,10.43799,15.65625,27.62988l-.61328,7.36816c-.20703,1.02637,.20117,1.53467,1.22754,1.53467h5.52637c1.02148,0,1.53418-.5083,1.53418-1.53467v-30.08594c0-17.19238,6.85547-25.78809,20.56934-25.78809,13.50781,0,20.26172,8.5957,20.26172,25.78809v30.08594c0,1.02637,.50879,1.53467,1.53516,1.53467,13.70996,0,20.56934,8.59619,20.56934,25.78809v6.75391c0,1.02686,.20117,1.12744,.61426,.30713,13.70898-23.73975,22.51172-45.43604,26.40137-65.08398,3.27148-16.7793,11.56055-23.84033,24.86719-21.18311,13.50781,2.6626,19.5957,7.06104,18.2666,13.20117-1.33301,6.14014-3.83789,15.14844-7.52148,27.01611-.20605,1.02637,.20117,1.53467,1.22754,1.53467h85.65332c17.39355,0,25.78809,8.70166,25.17383,26.09521-2.45605,64.88232-5.11816,111.74756-7.98145,140.60596-3.27637,29.88477-5.21875,45.23438-5.83301,46.0498-4.91211,6.95605-8.28906,11.81934-10.13086,14.58301-1.84277,2.7627-4.81152,5.57324-8.90332,8.44238-3.48242,2.45605-6.65332,3.99121-9.5166,4.60449-2.86914,.61426-5.9873,1.3291-9.36426,2.14941-3.37695,.81543-6.90723,1.22754-10.59082,1.22754-17.39844-.61328-25.78809-8.08691-25.1748-22.41016,.4082-14.32422,6.14062-21.18359,17.19238-20.56934h4.45117c1.94336,0,3.73242-1.02148,5.37305-3.07031,1.63574-2.04297,4.91211-6.44727,9.82422-13.20117,1.42871-1.8418,3.78418-38.16895,7.06055-108.98535,0-1.02148-.10547-1.02148-.30664,0-8.80273,33.97656-20.16113,64.4707-34.07715,91.48633-15.35059,30.29297-27.62988,49.32617-36.83984,57.10254-13.30664,11.25293-24.3584,11.3584-33.15625,.30664-8.5957-11.05176-5.83301-21.69141,8.28906-31.92773,4.91211-3.47754,15.65723-21.18262,32.23535-53.11133,14.32324-28.03809,25.58105-60.27246,33.76953-96.70459,.20117-1.02197-.20605-1.53516-1.22754-1.53516h-3.37695c-2.25488,0-3.68457,1.12744-4.29883,3.37695-6.13965,23.9458-14.94238,47.3833-26.40137,70.30322-12.48633,25.17383-20.46875,39.50195-23.94629,42.97949-12.48633,12.0791-23.33203,13-32.54199,2.76367-9.00879-10.23242-10.74512-17.54785-5.21875-21.95117,5.52539-4.39844,14.12207-16.52539,25.78809-36.37988,10.63867-18.21289,19.34082-38.06738,26.09473-59.55713,.40723-1.02197,.10059-1.53516-.9209-1.53516h-3.07031c-3.07031,0-5.21875,1.3335-6.44727,3.99121-7.78027,18.21826-12.17871,28.04248-13.2002,29.47119-10.64453,13.50879-21.49023,15.96484-32.54199,7.36816-11.05273-8.5957-13-17.49902-5.83301-26.7085,.61328-.81543,.40723-1.22803-.61426-1.22803h-13.81543c-1.02637,0-1.53516,.51318-1.53516,1.53516v38.98828c0,1.02637,.50879,1.43457,1.53516,1.22852,13.70996-3.68457,22.41113,.82031,26.0957,13.50781,3.47754,12.48633-2.96973,21.28809-19.3418,26.40234l-4.91211,1.22754c-2.25391,.82031-3.37695,2.45605-3.37695,4.91211v78.28516c0,17.19238-6.75391,25.78809-20.26172,25.78809Z"/>
    </g>
  </g>
</svg>